Coordinates																	
version=1																	
nRows=38																	
nColumns=18																	
inDegrees=yes																	
																	
"Units are S.I. units (second, meters, Newtons, ...)"																	
"If the header above contains a line with 'inDegrees', this indicates whether rotational values are in degrees (yes) or radians (no)."																	
																	
endheader																	
time	/jointset/hip_l/hip_flexion_l/value	/jointset/hip_l/hip_adduction_l/value	/jointset/hip_l/hip_rotation_l/value	/jointset/hip_r/hip_flexion_r/value	/jointset/hip_r/hip_adduction_r/value	/jointset/hip_r/hip_rotation_r/value	/jointset/knee_l/knee_angle_l/value	/jointset/knee_r/knee_angle_r/value	/jointset/ankle_l/ankle_angle_l/value	/jointset/ankle_r/ankle_angle_r/value	/jointset/subtalar_l/subtalar_angle_l/value	/jointset/subtalar_r/subtalar_angle_r/value	/jointset/mtp_l/mtp_angle_l/value	/jointset/mtp_r/mtp_angle_r/value	/jointset/back/lumbar_extension/value	/jointset/back/lumbar_bending/value	/jointset/back/lumbar_rotation/value
0.01	62.229096	-1.32832789	9.59537429	62.229096	-1.32832789	9.59537429	-101.3949423	-101.3949423	25.41299037	25.41299037	27.10781639	27.10781639	36.55288198	36.55288198	6.96938362	31.19791126	-14.6868128
0.02	7.48849185	-19.47342311	-15.41345502	7.48849185	-19.47342311	-15.41345502	-110.1924762	-110.1924762	-8.2840974	-8.2840974	15.84063471	15.84063471	44.27472955	44.27472955	-26.209775	-28.00024922	22.78462692
0.03	53.56499506	-8.46494778	32.49689234	53.56499506	-8.46494778	32.49689234	-69.62770057	-69.62770057	2.30094008	2.30094008	-27.85338171	-27.85338171	11.21664647	11.21664647	38.85693028	35.69668943	30.15257343
0.04	24.98693302	-7.74302296	-8.01489826	24.98693302	-7.74302296	-8.01489826	-41.86932666	-41.86932666	-22.78393539	-22.78393539	-1.98779301	-1.98779301	-9.48922919	-9.48922919	40.6029125	-15.57409736	26.78165951
0.05	-17.31856224	4.36999573	34.48309448	-17.31856224	4.36999573	34.48309448	-24.10775012	-24.10775012	-3.82398529	-3.82398529	-7.09449507	-7.09449507	-3.89331363	-3.89331363	2.77553296	-10.68999767	17.37801137
0.06	4.62396541	12.29505569	2.81382744	4.62396541	12.29505569	2.81382744	-37.51793025	-37.51793025	27.62174481	27.62174481	-7.07602526	-7.07602526	57.41146257	57.41146257	6.28397315	-11.55668219	-13.45592566
0.07	-13.4295857	14.48697245	17.63085192	-13.4295857	14.48697245	17.63085192	-13.25813465	-13.25813465	37.75197537	37.75197537	-7.93919108	-7.93919108	36.46234375	36.46234375	6.9465891	5.32564477	-29.74473519
0.08	59.98568201	-16.75661672	30.38127222	59.98568201	-16.75661672	30.38127222	-102.909826	-102.909826	-41.5178488	-41.5178488	-34.90633744	-34.90633744	55.5549693	55.5549693	12.08023775	-33.36085702	-23.17280269
0.09	-24.02711698	-3.9537191	8.77340961	-24.02711698	-3.9537191	8.77340961	-54.33635939	-54.33635939	-7.76898587	-7.76898587	33.06805204	33.06805204	27.51209419	27.51209419	24.08113209	-26.84639976	-27.20592409
0.1	13.19073159	19.65012116	2.17928783	13.19073159	19.65012116	2.17928783	-10.13402727	-10.13402727	-45.4951916	-45.4951916	9.71307051	9.71307051	45.54101566	45.54101566	-28.15549489	-37.18660026	-27.52686963
0.11	64.38491988	-4.19552832	-8.36928401	64.38491988	-4.19552832	-8.36928401	-63.06301026	-63.06301026	-0.37183627	-0.37183627	-24.71798746	-24.71798746	-8.4243342	-8.4243342	-28.68687571	24.23444822	-39.82557942
0.12	59.53046272	9.99026262	26.38309231	59.53046272	9.99026262	26.38309231	9.2275979	9.2275979	24.40082251	24.40082251	-16.37581359	-16.37581359	28.12059482	28.12059482	-8.70081064	-28.51034183	0.2076799
0.13	-22.95915008	1.06269081	-9.98518052	-22.95915008	1.06269081	-9.98518052	-119.5492932	-119.5492932	-38.51232125	-38.51232125	-4.67044228	-4.67044228	59.64121402	59.64121402	16.92926046	-34.99122263	16.49372166
0.14	16.72148291	-19.7491429	-6.23873405	16.72148291	-19.7491429	-6.23873405	-46.46325389	-46.46325389	-30.90991763	-30.90991763	10.4321175	10.4321175	59.05159214	59.05159214	-44.52768061	8.84066227	-2.88424021
0.15	32.37474047	12.17254858	9.46061983	32.37474047	12.17254858	9.46061983	-96.07797215	-96.07797215	45.07122838	45.07122838	-22.23377106	-22.23377106	53.21373529	53.21373529	-44.78711032	42.95794596	-15.33214135
0.16	-23.79852064	2.52052484	-0.84984177	-23.79852064	2.52052484	-0.84984177	-3.029369	-3.029369	39.82041327	39.82041327	-11.18424613	-11.18424613	23.6371511	23.6371511	37.76851689	21.03332886	-13.29867785
0.17	-2.20453485	18.21047344	-4.09066561	-2.20453485	18.21047344	-4.09066561	-39.88314693	-39.88314693	40.34684155	40.34684155	12.85423381	12.85423381	6.48593187	6.48593187	-2.38743715	-38.73892061	-34.09633793
0.18	-17.06487398	-7.26164416	16.1302604	-17.06487398	-7.26164416	16.1302604	-105.4556413	-105.4556413	-14.63572223	-14.63572223	32.23055321	32.23055321	0.05988805	0.05988805	5.11025315	-18.43640475	-25.20449304
0.19	66.41477435	-18.23026847	-4.95974684	66.41477435	-18.23026847	-4.95974684	-51.64684828	-51.64684828	13.95596243	13.95596243	17.46010906	17.46010906	50.59541004	50.59541004	39.28051722	-28.46189902	-42.58014675
0.2	8.60428861	-2.86302847	-4.84618023	8.60428861	-2.86302847	-4.84618023	-72.50394427	-72.50394427	-30.27428415	-30.27428415	-25.6852477	-25.6852477	29.62929686	29.62929686	-29.13962145	9.41606928	12.82530005
0.21	20.51449664	-18.29915065	5.1330611	20.51449664	-18.29915065	5.1330611	-57.21743421	-57.21743421	29.7450654	29.7450654	-28.44594655	-28.44594655	-5.71143087	-5.71143087	39.32605098	-9.59471809	22.15514807
0.22	33.37652729	-8.50335792	15.84418333	33.37652729	-8.50335792	15.84418333	-34.69661234	-34.69661234	-10.32559932	-10.32559932	-16.78402729	-16.78402729	43.71675948	43.71675948	38.28181312	40.98936077	4.12984947
0.23	7.96370431	-10.31450421	-6.91396781	7.96370431	-10.31450421	-6.91396781	4.8668119	4.8668119	-32.02810457	-32.02810457	-1.97891952	-1.97891952	44.09484208	44.09484208	10.39585902	29.31588459	-18.90542731
0.24	33.47181597	-4.9574641	-19.35265401	33.47181597	-4.9574641	-19.35265401	-68.67828242	-68.67828242	-12.42916096	-12.42916096	-31.09561625	-31.09561625	-1.47477903	-1.47477903	22.86461377	31.67257175	0.93646078
0.25	25.07151297	-7.40380311	1.13101408	25.07151297	-7.40380311	1.13101408	-3.60363196	-3.60363196	-13.23645331	-13.23645331	9.75573146	9.75573146	56.95359734	56.95359734	35.13392955	-30.75633301	-44.9143422
0.26	66.19031944	9.57356946	3.58481375	66.19031944	9.57356946	3.58481375	-32.75880643	-32.75880643	-46.89779509	-46.89779509	15.61047127	15.61047127	49.50236429	49.50236429	16.6908368	4.71435805	40.98703697
0.27	-29.16798078	12.00849629	-0.97814237	-29.16798078	12.00849629	-0.97814237	-76.51500079	-76.51500079	-21.03100564	-21.03100564	12.42059084	12.42059084	14.33925245	14.33925245	43.73642547	8.65548863	12.18092838
0.28	37.90154234	12.51553219	8.34436458	37.90154234	12.51553219	8.34436458	-30.35129008	-30.35129008	-19.09850031	-19.09850031	2.36267607	2.36267607	39.93422083	39.93422083	14.93517667	-20.21854595	4.76480218
0.29	16.88417395	11.42724344	12.91513301	16.88417395	11.42724344	12.91513301	-30.38505183	-30.38505183	17.15942844	17.15942844	31.58807784	31.58807784	49.38248424	49.38248424	-9.12359909	-13.92152189	-36.78152147
0.3	46.12611962	7.23956732	19.59333082	46.12611962	7.23956732	19.59333082	-47.32451529	-47.32451529	-42.13029397	-42.13029397	23.30034412	23.30034412	51.53215243	51.53215243	-34.06589475	35.47835698	-1.69868207
0.31	39.01174087	13.48722213	34.65008108	39.01174087	13.48722213	34.65008108	-35.23569728	-35.23569728	3.62923289	3.62923289	-33.79627654	-33.79627654	43.37732936	43.37732936	-25.59424407	-16.87159888	-39.49598498
0.32	64.6508543	10.48465713	-7.48460032	64.6508543	10.48465713	-7.48460032	-10.92271555	-10.92271555	-37.85392212	-37.85392212	-5.82828906	-5.82828906	6.17220202	6.17220202	21.99475888	-20.11759784	1.97964018
0.33	45.56401833	-19.0102685	20.34076219	45.56401833	-19.0102685	20.34076219	-41.13990987	-41.13990987	-39.53457692	-39.53457692	-14.90786752	-14.90786752	24.2984868	24.2984868	15.03423209	-35.3711158	-8.06923322
0.34	8.9113079	16.83678775	21.19566461	8.9113079	16.83678775	21.19566461	-18.31452442	-18.31452442	-35.34426832	-35.34426832	8.80300726	8.80300726	8.56619037	8.56619037	-20.68889896	3.39024683	33.64959105
0.35	19.32223507	-2.07163527	28.50275555	19.32223507	-2.07163527	28.50275555	-96.77429126	-96.77429126	-35.91884375	-35.91884375	4.63531866	4.63531866	28.1239105	28.1239105	-19.51077319	5.84207811	-10.11322944
0.36	44.67265905	17.95074248	31.66195847	44.67265905	17.95074248	31.66195847	-70.81203825	-70.81203825	4.5095827	4.5095827	19.00506173	19.00506173	-8.38144119	-8.38144119	-35.96633489	32.578945	-35.70972154
0.37	-16.94670099	-17.61300131	8.81850492	-16.94670099	-17.61300131	8.81850492	-3.09499864	-3.09499864	-18.83273376	-18.83273376	-3.21983953	-3.21983953	58.0994202	58.0994202	32.04155402	-7.38151563	21.29471592
0.38	-15.47432615	-14.84015407	-5.9052821	-15.47432615	-14.84015407	-5.9052821	-97.99720598	-97.99720598	14.87734737	14.87734737	-28.89723106	-28.89723106	0.00771475	0.00771475	-25.13210465	5.16798196	34.02569608
